<?xml version="1.0" encoding="UTF-8" standalone="no"?>
<!-- Created with Inkscape (http://www.inkscape.org/) -->

<svg
   xmlns:dc="http://purl.org/dc/elements/1.1/"
   xmlns:cc="http://creativecommons.org/ns#"
   xmlns:rdf="http://www.w3.org/1999/02/22-rdf-syntax-ns#"
   xmlns:svg="http://www.w3.org/2000/svg"
   xmlns="http://www.w3.org/2000/svg"
   xmlns:sodipodi="http://sodipodi.sourceforge.net/DTD/sodipodi-0.dtd"
   xmlns:inkscape="http://www.inkscape.org/namespaces/inkscape"
   id="svg2"
   version="1.1"
   inkscape:version="0.91 r13725"
   width="169.58446"
   height="44.145233"
   viewBox="0 0 169.58446 44.145233"
   sodipodi:docname="AnyCompany_Logo.svg">
  <metadata
     id="metadata8">
    <rdf:RDF>
      <cc:Work
         rdf:about="">
        <dc:format>image/svg+xml</dc:format>
        <dc:type
           rdf:resource="http://purl.org/dc/dcmitype/StillImage" />
        <dc:title></dc:title>
      </cc:Work>
    </rdf:RDF>
  </metadata>
  <defs
     id="defs6" />
  <sodipodi:namedview
     pagecolor="#ffffff"
     bordercolor="#666666"
     borderopacity="1"
     objecttolerance="10"
     gridtolerance="10"
     guidetolerance="10"
     inkscape:pageopacity="0"
     inkscape:pageshadow="2"
     inkscape:window-width="1914"
     inkscape:window-height="1028"
     id="namedview4"
     showgrid="false"
     fit-margin-top="0"
     fit-margin-left="0"
     fit-margin-right="0"
     fit-margin-bottom="0"
     inkscape:zoom="3.5600469"
     inkscape:cx="69.493116"
     inkscape:cy="45.355344"
     inkscape:window-x="1440"
     inkscape:window-y="24"
     inkscape:window-maximized="0"
     inkscape:current-layer="svg2" />
  <g
     style="font-style:normal;font-variant:normal;font-weight:normal;font-stretch:normal;font-size:26.08966637px;line-height:125%;font-family:'TeX Gyre Bonum';-inkscape-font-specification:'TeX Gyre Bonum';text-align:center;letter-spacing:0px;word-spacing:0px;text-anchor:middle;fill:#333333;fill-opacity:1;stroke:none;stroke-width:1px;stroke-linecap:butt;stroke-linejoin:miter;stroke-opacity:1"
     id="text4138-2"
     transform="translate(7.4899197e-7,4)">
    <path
       d="m 19.593339,24.864647 0,-0.80878 C 17.89751,23.794971 17.584434,23.507984 16.645206,21.081645 l -5.531009,-13.9840609 -2.4263388,0 L 4.2004355,18.603127 C 2.4524279,23.06446 2.0349932,23.664522 0.28698558,24.003688 l -0.28698632899197,0.05218 0,0.80878 6.99203054899197,0 0,-0.80878 C 6.0528018,23.925419 5.6092775,23.82106 5.3222912,23.638433 4.3830632,23.012281 4.5917805,21.968694 5.1657532,20.507673 l 0.8348693,-2.243712 6.7311335,0 1.304484,3.365567 c 0.573972,1.61756 0.391345,2.113263 -1.774098,2.426339 l 0,0.80878 7.331197,0 z m -7.331197,-7.722541 -5.8701745,0 2.895953,-7.8269002 2.9742215,7.8269002 z"
       id="path4178"
       inkscape:connector-curvature="0" />
    <path
       d="m 35.630331,24.864647 0,-0.78269 -0.652242,-0.05218 C 33.830144,23.899329 33.36053,23.299267 33.36053,21.864335 l 0,-6.444147 c 0,-2.165443 -1.487111,-3.443836 -3.93954,-3.443836 -1.982814,0 -3.522105,0.652241 -5.374471,2.29589 l 0,-2.061083 -0.887049,0 c -1.617559,0.313076 -2.478518,0.417434 -3.939539,0.521793 l 0,0.78269 0.626152,0.05218 c 1.330573,0.104359 1.721918,0.600063 1.721918,2.165443 l 0,6.131071 c 0,1.434932 -0.469614,2.034994 -1.61756,2.165443 l -0.652241,0.05218 0,0.78269 7.01812,0 0,-0.78269 -0.652242,-0.05218 C 24.516133,23.89933 24.046519,23.299268 24.046519,21.864336 l 0,-6.444147 c 1.617559,-1.461022 3.15685,-2.191532 4.617871,-2.191532 1.434932,0 2.217622,0.913138 2.217622,2.608966 l 0,6.026713 c 0,1.434932 -0.469614,2.034994 -1.61756,2.165443 l -0.652241,0.05218 0,0.78269 7.01812,0 z"
       id="path4180"
       inkscape:connector-curvature="0" />
    <path
       d="m 49.735054,13.019938 0,-0.808779 -5.739727,0 0,0.78269 c 1.643649,0.313076 2.34807,0.600062 1.278394,3.261208 l -2.426339,6.157161 -3.261208,-7.931258 c -0.313076,-0.756601 0,-1.330573 1.304483,-1.487111 l 0,-0.78269 -6.078892,0 0,0.808779 c 1.278394,0.182628 1.59147,0.443525 2.087173,1.643649 l 4.67005,10.905481 -0.652241,1.513201 c -0.573973,1.408842 -1.487111,2.374159 -2.191532,2.374159 -0.260897,0 -0.521793,-0.156538 -0.860959,-0.495703 -0.652242,-0.704421 -0.913138,-0.860959 -1.434932,-0.860959 -0.7566,0 -1.382752,0.600062 -1.382752,1.278393 0,1.017497 1.043587,1.774098 2.452429,1.774098 3.026401,0 4.487422,-3.756912 5.061395,-5.165754 l 4.513512,-10.592405 c 0.626152,-1.461021 1.252304,-2.034994 2.661146,-2.37416 z"
       id="path4182"
       inkscape:connector-curvature="0" />
    <path
       d="m 67.790738,20.71639 -1.121856,-0.626152 c -2.269801,3.391657 -5.244023,3.861271 -6.444147,3.861271 -2.608967,0 -6.522417,-2.034994 -6.522417,-7.905169 0,-4.617871 2.556787,-8.0356176 6.000623,-8.0356176 4.017809,0 5.322292,2.7655046 6.705045,5.6092786 l 0.834869,0 -1.252304,-6.2876099 -0.860959,0 -0.547883,1.095766 c -1.53929,-1.174035 -3.13076,-1.6697386 -5.374471,-1.6697386 -3.469926,0 -8.583501,3.1829392 -8.583501,9.3140105 0,5.217934 3.93954,9.131384 9.209653,9.131384 3.365567,0 6.026713,-1.487111 7.957348,-4.487423 z"
       id="path4184"
       inkscape:connector-curvature="0" />
    <path
       d="m 82.511418,18.629217 c 0,-2.40025 -1.278393,-6.652865 -6.444147,-6.652865 -5.061395,0 -6.313699,4.252615 -6.313699,6.600685 0,3.93954 2.530697,6.522417 6.418058,6.522417 3.783001,0 6.339788,-2.608967 6.339788,-6.470237 z m -2.661146,0.130448 c 0,3.313388 -1.356662,5.296202 -3.652553,5.296202 -2.400249,0 -3.783001,-2.008904 -3.783001,-5.531009 0,-3.339477 1.461021,-5.50492 3.678643,-5.50492 2.348069,0 3.756911,2.165443 3.756911,5.739727 z"
       id="path4186"
       inkscape:connector-curvature="0" />
    <path
       d="m 107.62395,24.864647 0,-0.78269 -0.65225,-0.05218 c -1.14794,-0.130449 -1.61756,-0.730511 -1.61756,-2.165443 l 0,-6.391968 c 0,-2.191532 -1.30448,-3.496015 -3.46992,-3.496015 -1.74801,0 -3.078582,0.573972 -4.957038,2.165442 -0.704421,-1.56538 -1.695828,-2.165442 -3.574284,-2.165442 -1.826277,0 -3.078581,0.521793 -4.748319,1.982814 l 0,-1.748007 -0.887049,0 c -1.513201,0.286986 -2.32198,0.391345 -3.861271,0.521793 l 0,0.78269 0.547883,0.05218 c 1.356663,0.130449 1.721918,0.600063 1.721918,2.165443 l 0,6.131071 c 0,1.434932 -0.469614,2.034994 -1.617559,2.165443 l -0.652242,0.05218 0,0.78269 6.835493,0 0,-0.78269 -0.469614,-0.05218 c -0.704421,-0.104359 -1.617559,-0.234807 -1.617559,-2.165443 l 0,-6.731134 c 1.5132,-1.304483 2.556787,-1.800187 3.756912,-1.800187 1.487111,0 2.139352,0.860959 2.139352,2.765505 l 0,5.765816 c 0,1.434932 -0.443524,2.008905 -1.617559,2.165443 l -0.547883,0.05218 0,0.78269 6.809403,0 0,-0.78269 -0.547883,-0.05218 C 97.422886,23.87324 96.979362,23.299267 96.979362,21.864335 l 0,-6.731134 c 1.591469,-1.330573 2.635056,-1.800187 3.835178,-1.800187 1.35667,0 2.06109,0.965318 2.06109,2.843774 l 0,5.687547 c 0,1.721918 -0.67834,2.008905 -1.61756,2.165443 l -0.46962,0.05218 0,0.78269 6.8355,0 z"
       id="path4188"
       inkscape:connector-curvature="0" />
    <path
       d="m 122.4706,18.472679 c 0,-3.313388 -2.035,-6.496327 -5.68755,-6.496327 -1.72192,0 -3.07858,0.626152 -4.25261,1.956725 l 0,-1.721918 -0.88705,0 c -1.5132,0.286986 -2.32198,0.391345 -3.86127,0.521793 l 0,0.78269 0.54788,0.05218 c 1.35666,0.130449 1.72192,0.600063 1.72192,2.165443 l 0,12.079515 c 0,1.408842 -0.46962,2.061084 -1.61756,2.165443 l -0.65224,0.05218 0,0.78269 7.01812,0 0,-0.78269 -0.65225,-0.05218 c -1.14794,-0.104359 -1.61755,-0.756601 -1.61755,-2.165443 l 0,-4.043898 c 1.20012,0.913138 2.47851,1.330573 4.12216,1.330573 3.31339,0 5.818,-2.869863 5.818,-6.626775 z m -2.66115,0.313076 c 0,2.974222 -1.61756,5.139664 -3.80909,5.139664 -1.30448,0 -2.47852,-0.495704 -3.46992,-1.434932 l 0,-7.252927 c 1.09576,-1.461021 2.11326,-2.087173 3.44383,-2.087173 2.32198,0 3.83518,2.217621 3.83518,5.635368 z"
       id="path4190"
       inkscape:connector-curvature="0" />
    <path
       d="m 138.72813,24.081957 -0.4957,-0.678331 c -0.44353,0.391345 -0.73051,0.521793 -1.17404,0.521793 -1.43493,0 -1.46102,-1.304483 -1.46102,-2.556787 l 0,-5.53101 c 0,-3.13076 -2.89595,-3.86127 -5.00921,-3.86127 -2.55679,0 -5.68755,1.304483 -5.68755,3.313387 0,0.626152 0.57397,1.147946 1.2523,1.147946 0.73051,0 1.33058,-0.600063 1.33058,-1.330573 l -0.0261,-0.730511 c 0,-0.7566 1.17403,-1.356663 2.63505,-1.356663 1.85237,0 3.0264,0.913139 3.0264,2.34807 l 0,2.087174 c -2.71332,0.286986 -8.79221,0.73051 -8.79221,4.409153 0,1.878456 1.69582,3.235119 4.01781,3.235119 1.748,0 3.0264,-0.547883 4.7744,-2.008904 0.49571,1.408842 1.38276,2.008904 2.92205,2.008904 1.09576,0 1.95672,-0.313076 2.68723,-1.017497 z m -5.60928,-2.165442 c -1.46102,1.382752 -2.55678,1.930635 -3.86127,1.930635 -1.2523,0 -2.2698,-0.991407 -2.2698,-2.243711 0,-1.748008 2.19153,-2.895953 6.13107,-3.235119 l 0,3.548195 z"
       id="path4192"
       inkscape:connector-curvature="0" />
    <path
       d="m 155.47974,24.864647 0,-0.78269 -0.65224,-0.05218 c -1.14795,-0.130449 -1.61756,-0.730511 -1.61756,-2.165443 l 0,-6.444147 c 0,-2.165443 -1.48711,-3.443836 -3.93954,-3.443836 -1.98282,0 -3.52211,0.652241 -5.37447,2.29589 l 0,-2.061083 -0.88705,0 c -1.61756,0.313076 -2.47852,0.417434 -3.93954,0.521793 l 0,0.78269 0.62615,0.05218 c 1.33057,0.104359 1.72192,0.600063 1.72192,2.165443 l 0,6.131071 c 0,1.434932 -0.46961,2.034994 -1.61756,2.165443 l -0.65224,0.05218 0,0.78269 7.01812,0 0,-0.78269 -0.65224,-0.05218 c -1.14795,-0.130449 -1.61756,-0.730511 -1.61756,-2.165443 l 0,-6.444147 c 1.61756,-1.461022 3.15685,-2.191532 4.61787,-2.191532 1.43493,0 2.21762,0.913138 2.21762,2.608966 l 0,6.026713 c 0,1.434932 -0.46961,2.034994 -1.61756,2.165443 l -0.65224,0.05218 0,0.78269 7.01812,0 z"
       id="path4194"
       inkscape:connector-curvature="0" />
    <path
       d="m 169.58446,13.019938 0,-0.808779 -5.73973,0 0,0.78269 c 1.64365,0.313076 2.34807,0.600062 1.27839,3.261208 l -2.42633,6.157161 -3.26121,-7.931258 c -0.31308,-0.756601 0,-1.330573 1.30448,-1.487111 l 0,-0.78269 -6.07889,0 0,0.808779 c 1.27839,0.182628 1.59147,0.443525 2.08717,1.643649 l 4.67005,10.905481 -0.65224,1.513201 c -0.57397,1.408842 -1.48711,2.374159 -2.19153,2.374159 -0.2609,0 -0.5218,-0.156538 -0.86096,-0.495703 -0.65224,-0.704421 -0.91314,-0.860959 -1.43493,-0.860959 -0.7566,0 -1.38275,0.600062 -1.38275,1.278393 0,1.017497 1.04358,1.774098 2.45242,1.774098 3.02641,0 4.48743,-3.756912 5.0614,-5.165754 l 4.51351,-10.592405 c 0.62615,-1.461021 1.25231,-2.034994 2.66115,-2.37416 z"
       id="path4196"
       inkscape:connector-curvature="0" />
  </g>
  <rect
     style="opacity:1;fill:#333333;fill-opacity:1;fill-rule:nonzero;stroke:none;stroke-width:5;stroke-linecap:round;stroke-linejoin:round;stroke-miterlimit:4;stroke-dasharray:none;stroke-opacity:1"
     id="rect4160"
     width="138.83739"
     height="1.9862288"
     x="14.820839"
     y="0" />
  <rect
     style="opacity:1;fill:#333333;fill-opacity:1;fill-rule:nonzero;stroke:none;stroke-width:5;stroke-linecap:round;stroke-linejoin:round;stroke-miterlimit:4;stroke-dasharray:none;stroke-opacity:1"
     id="rect4160-4"
     width="138.83739"
     height="1.9862288"
     x="14.861979"
     y="42.159004" />
</svg>
