<?xml version="1.0" encoding="UTF-8" standalone="no"?>
<!-- Created with Inkscape (http://www.inkscape.org/) -->

<svg
   xmlns:dc="http://purl.org/dc/elements/1.1/"
   xmlns:cc="http://creativecommons.org/ns#"
   xmlns:rdf="http://www.w3.org/1999/02/22-rdf-syntax-ns#"
   xmlns:svg="http://www.w3.org/2000/svg"
   xmlns="http://www.w3.org/2000/svg"
   version="1.1"
   width="188.38177"
   height="188.37772"
   id="svg3228">
  <defs
     id="defs3230">
    <clipPath
       id="clipPath3090">
      <path
         d="m 0,0 595.275,0 0,552.069 L 0,552.069 0,0 z"
         id="path3092" />
    </clipPath>
  </defs>
  <metadata
     id="metadata3233">
    <rdf:RDF>
      <cc:Work
         rdf:about="">
        <dc:format>image/svg+xml</dc:format>
        <dc:type
           rdf:resource="http://purl.org/dc/dcmitype/StillImage" />
        <dc:title></dc:title>
      </cc:Work>
    </rdf:RDF>
  </metadata>
  <g
     transform="translate(-280.8091,-438.1733)"
     id="layer1">
    <g
       transform="matrix(2.5,0,0,-2.5,-910.50016,1820.3458)"
       id="g3086">
      <g
         clip-path="url(#clipPath3090)"
         id="g3088">
        <g
           transform="translate(501.4078,511.9124)"
           id="g3094">
          <path
             d="m 0,0 c -0.695,0 -1.215,-0.419 -1.34,-1.393 l 2.528,0 C 1.188,-0.584 0.846,0 0,0"
             id="path3096"
             style="fill:#9c0535;fill-opacity:1;fill-rule:nonzero;stroke:none" />
        </g>
        <g
           transform="translate(530.4489,511.9124)"
           id="g3098">
          <path
             d="m 0,0 c -0.695,0 -1.213,-0.419 -1.34,-1.393 l 2.531,0 C 1.191,-0.584 0.848,0 0,0"
             id="path3100"
             style="fill:#9c0535;fill-opacity:1;fill-rule:nonzero;stroke:none" />
        </g>
        <g
           transform="translate(536.8785,511.7483)"
           id="g3102">
          <path
             d="m 0,0 c -0.811,0 -1.453,-0.619 -1.453,-1.909 0,-1.315 0.719,-1.885 1.465,-1.885 1.15,0 1.379,1.138 1.379,1.189 l 0,1.516 C 1.375,-0.873 1.035,0 0,0"
             id="path3104"
             style="fill:#9c0535;fill-opacity:1;fill-rule:nonzero;stroke:none" />
        </g>
        <g
           transform="translate(544.4626,500.094)"
           id="g3106">
          <path
             d="m 0,0 c -2.488,-2.068 -6.348,-3.116 -11.471,-3.116 -0.894,0 -1.816,0.034 -2.756,0.093 -3.847,0.251 -7.63,0.856 -11.291,1.44 -2,0.315 -3.972,0.631 -5.931,0.889 -2.588,0.337 -4.67,0.495 -6.541,0.495 -5.963,0 -9.639,-1.71 -11.172,-5.221 -0.211,-0.488 -0.391,-0.961 -0.518,-2.305 -0.199,-2.127 0.715,-4.084 0.715,-4.084 l -2.426,4.26 c -2.08,3.516 -3.814,6.922 -5.427,10.141 -1.58,3.164 -3.883,7.97 -5.569,13.153 -1.443,4.417 -2.834,9.735 -2.228,15.651 0.242,2.406 0.869,4.445 1.965,6.416 0.941,1.675 2.238,2.902 3.865,3.65 1.972,0.909 4.898,1.37 8.697,1.37 2.022,0 4.238,-0.12 7.186,-0.387 1.423,-0.13 2.869,-0.3 4.334,-0.473 3.341,-0.395 6.761,-0.8 10.31,-0.8 1.27,0 2.447,0.05 3.606,0.152 5.064,0.447 8.662,2.235 11.002,5.466 l 0.634,0.875 0.643,-0.868 C -7.512,40.236 -3.578,33.693 -0.35,26.795 1.508,22.818 3.488,18.006 4.104,12.441 4.701,7.025 3.285,2.723 0,0 M 6.465,12.705 C 5.83,18.461 3.859,23.399 1.801,27.802 c -3.938,8.416 -8.713,15.89 -14.133,22.876 -0.348,0.448 -0.674,0.968 -1.148,1.297 l -0.071,0 c -0.32,-0.093 -0.406,-0.666 -0.556,-1.054 -1.727,-4.406 -5.065,-6.728 -10.752,-7.229 -6.182,-0.544 -12.145,0.601 -17.823,1.121 -5.867,0.532 -12.681,0.84 -17.097,-1.192 -2.159,-0.993 -3.807,-2.624 -4.944,-4.642 -1.144,-2.057 -1.959,-4.392 -2.259,-7.34 -0.643,-6.269 0.8,-11.931 2.336,-16.631 1.564,-4.811 3.619,-9.32 5.705,-13.483 3.134,-6.261 6.875,-12.234 10.824,-17.96 0.883,-1.284 2.019,-2.827 3.027,-4.189 0.217,-0.297 0.768,-1.363 1.188,-1.115 0.412,0.232 -0.375,1.47 -0.485,1.708 -0.82,1.631 -1.613,3.464 -2.166,5.24 -0.697,2.281 -1.611,5.931 -0.554,8.348 1.986,4.547 9.38,4.168 15.351,3.39 5.611,-0.737 11.332,-1.945 17.373,-2.342 6.69,-0.439 12.278,0.554 15.903,3.567 3.543,2.938 5.695,7.76 4.945,14.533"
             id="path3108"
             style="fill:#9c0535;fill-opacity:1;fill-rule:nonzero;stroke:none" />
        </g>
        <g
           transform="translate(540.152,506.8274)"
           id="g3110">
          <path
             d="m 0,0 c 0,0 -0.215,-0.073 -0.607,-0.073 -0.604,0 -0.998,0.263 -1.112,0.909 l 0,0.152 c -0.127,-0.228 -0.556,-1.09 -1.91,-1.09 -1.199,0 -2.453,0.938 -2.453,3.101 0,2.264 1.266,3.147 2.605,3.147 1.239,0 1.594,-0.72 1.594,-0.72 l 0,3.729 1.377,0 0,-7.647 c 0,-0.343 0.115,-0.52 0.506,-0.52 L 0,0 z m -9.602,-0.102 c -1.554,0 -2.845,0.989 -2.845,3.126 0,1.998 0.974,3.122 2.82,3.122 1.758,0 2.416,-1.174 2.416,-2.794 l 0,-0.569 -3.857,0 c 0.088,-1.365 0.972,-1.758 1.656,-1.758 1.053,0 1.555,0.81 1.555,0.81 l 0.709,-0.721 c 0,0 -0.645,-1.216 -2.454,-1.216 M -13.51,0 c 0,0 -0.215,-0.073 -0.605,-0.073 -0.809,0 -1.28,0.428 -1.28,1.403 l 0,4.74 1.368,0 0,-4.562 c 0,-0.343 0.127,-0.52 0.517,-0.52 l 0,-0.988 z m -1.201,8.966 c 0.494,0 0.885,-0.352 0.885,-0.836 0,-0.49 -0.391,-0.846 -0.885,-0.846 -0.492,0 -0.871,0.356 -0.871,0.846 0,0.484 0.379,0.836 0.871,0.836 m -2.023,-2.896 0,-1.087 -2.045,0 0,-5.008 -1.366,0 0,5.008 -0.886,0 0,1.087 0.886,0 0,0.748 c 0,1.413 0.694,2.388 2.237,2.388 1.047,0 1.529,-0.592 1.529,-0.592 l -0.432,-1.013 c 0,0 -0.289,0.38 -0.959,0.38 -0.644,0 -1.009,-0.457 -1.009,-1.213 l 0,-0.698 2.045,0 z m -4.977,17.926 -5.078,0 0,-13.181 -3.732,0 0,13.181 -5.282,0 0,2.949 14.092,0 0,-2.949 z M -24.174,8.13 c 0,0.484 0.379,0.836 0.873,0.836 0.494,0 0.885,-0.352 0.885,-0.836 0,-0.49 -0.391,-0.846 -0.885,-0.846 -0.494,0 -0.873,0.356 -0.873,0.846 M -22.1,0 c 0,0 -0.214,-0.073 -0.605,-0.073 -0.811,0 -1.281,0.428 -1.281,1.403 l 0,4.74 1.367,0 0,-4.562 c 0,-0.343 0.127,-0.52 0.519,-0.52 L -22.1,0 z m -4.709,-0.102 c -1.656,0 -2.3,0.887 -2.3,2.505 l 0,2.58 -0.938,0 0,1.087 0.938,0 0,1.911 1.363,0 0,-1.911 2.213,0 0,-1.087 -2.213,0 0,-2.529 c 0,-0.884 0.33,-1.327 1.078,-1.327 0.645,0 1.035,0.418 1.035,0.418 l 0.418,-1 c 0,0 -0.605,-0.647 -1.594,-0.647 m -4.462,4.831 c 0,0 -0.241,0.179 -0.735,0.179 -0.898,0 -1.265,-0.835 -1.275,-1.454 l 0,-3.479 -1.367,0 0,4.577 c 0,0.318 -0.114,0.508 -0.52,0.508 l 0,0.985 c 0,0 0.193,0.076 0.582,0.076 0.582,0 0.988,-0.289 1.115,-0.898 l 0,-0.265 c 0.174,0.594 0.705,1.188 1.858,1.188 0.593,0 0.898,-0.214 0.898,-0.214 l -0.556,-1.203 z m -7.372,-4.831 c -1.554,0 -2.845,0.989 -2.845,3.126 0,1.998 0.972,3.122 2.82,3.122 1.758,0 2.416,-1.174 2.416,-2.794 l 0,-0.569 -3.857,0 c 0.089,-1.365 0.976,-1.758 1.656,-1.758 1.049,0 1.555,0.81 1.555,0.81 l 0.709,-0.721 c 0,0 -0.645,-1.216 -2.454,-1.216 m -6.742,0 c -2.34,0 -4.033,1.432 -4.033,4.478 0,3.035 1.543,4.529 3.832,4.529 3.059,0 3.322,-2.569 3.322,-2.948 l -1.361,-0.215 c 0,0 -0.076,1.859 -1.936,1.859 -1.302,0 -2.328,-0.948 -2.328,-3.225 0,-2.313 1.264,-3.173 2.58,-3.173 1.393,0 2.213,1.2 2.213,1.2 l 0.848,-0.895 c 0,0 -0.949,-1.61 -3.137,-1.61 m -4.136,27.047 3.732,0 0,-9.723 c 0,-1.752 0.648,-3.203 2.676,-3.203 2.025,0 2.601,1.451 2.601,3.203 l 0,9.723 3.733,0 0,-9.447 c 0,-5.14 -2.881,-6.821 -6.334,-6.821 -3.483,0 -6.455,1.681 -6.432,6.821 l 0.024,9.447 z m 28.796,-13.179 7.905,10.23 -7.905,0 0,2.949 12.444,0 0,-2.949 -7.766,-10.23 7.766,0 0,-2.951 -12.444,0 0,2.951 z M 2.523,19.39 c -3.043,6.507 -6.724,12.697 -11.238,18.891 -2.617,-3.093 -6.387,-4.818 -11.49,-5.268 -1.201,-0.107 -2.426,-0.159 -3.742,-0.159 -3.643,0 -7.114,0.41 -10.467,0.808 -1.479,0.173 -2.91,0.344 -4.318,0.472 -2.901,0.263 -5.071,0.38 -7.045,0.38 -3.567,0 -6.272,-0.412 -8.036,-1.225 -1.312,-0.605 -2.371,-1.609 -3.142,-2.984 -0.988,-1.774 -1.555,-3.618 -1.774,-5.803 -0.576,-5.623 0.766,-10.737 2.159,-14.999 1.652,-5.082 3.922,-9.816 5.48,-12.938 1.358,-2.705 2.865,-5.438 4.6,-8.312 0.021,0.055 0.043,0.106 0.064,0.157 1.809,4.14 6.098,6.242 12.746,6.242 1.942,0 4.084,-0.161 6.744,-0.508 1.979,-0.262 3.961,-0.575 5.971,-0.899 3.631,-0.575 7.379,-1.172 11.151,-1.421 0.908,-0.059 1.793,-0.09 2.654,-0.09 4.744,0 8.262,0.926 10.457,2.749 2.855,2.37 4.078,6.19 3.543,11.053 -0.592,5.332 -2.514,9.995 -4.317,13.854"
             id="path3112"
             style="fill:#9c0535;fill-opacity:1;fill-rule:nonzero;stroke:none" />
        </g>
        <g
           transform="translate(543.4489,501.3108)"
           id="g3114">
          <path
             d="m 0,0 c -2.195,-1.823 -5.713,-2.749 -10.457,-2.749 -0.861,0 -1.746,0.03 -2.654,0.09 -3.772,0.249 -7.52,0.846 -11.151,1.421 -2.009,0.324 -3.992,0.636 -5.97,0.898 -2.661,0.348 -4.803,0.509 -6.745,0.509 -6.648,0 -10.937,-2.103 -12.746,-6.242 -0.021,-0.051 -0.043,-0.103 -0.064,-0.157 -1.734,2.874 -3.242,5.607 -4.6,8.312 -1.558,3.121 -3.828,7.856 -5.48,12.938 -1.393,4.261 -2.735,9.376 -2.158,14.999 0.218,2.184 0.785,4.029 1.773,5.802 0.772,1.375 1.83,2.379 3.143,2.985 1.763,0.812 4.468,1.224 8.035,1.224 1.974,0 4.144,-0.116 7.045,-0.38 1.408,-0.128 2.84,-0.298 4.318,-0.471 3.354,-0.399 6.824,-0.808 10.467,-0.808 1.316,0 2.541,0.052 3.742,0.158 5.104,0.45 8.873,2.176 11.49,5.269 C -7.498,37.604 -3.816,31.414 -0.773,24.906 1.029,21.048 2.951,16.385 3.543,11.053 4.078,6.189 2.855,2.369 0,0 M 0.664,25.578 C -2.564,32.477 -6.498,39.02 -11.359,45.58 l -0.643,0.868 -0.635,-0.875 c -2.34,-3.231 -5.937,-5.019 -11.002,-5.466 -1.158,-0.102 -2.336,-0.152 -3.605,-0.152 -3.549,0 -6.969,0.405 -10.311,0.8 -1.465,0.173 -2.91,0.344 -4.334,0.474 -2.947,0.266 -5.164,0.386 -7.185,0.386 -3.799,0 -6.725,-0.461 -8.697,-1.37 -1.627,-0.748 -2.924,-1.974 -3.866,-3.65 -1.095,-1.971 -1.722,-4.01 -1.965,-6.415 -0.605,-5.916 0.786,-11.235 2.229,-15.652 1.685,-5.183 3.988,-9.989 5.568,-13.153 1.614,-3.219 3.348,-6.625 5.428,-10.141 l 2.426,-4.259 c 0,0 -0.914,1.957 -0.715,4.084 0.127,1.343 0.307,1.816 0.518,2.304 1.533,3.511 5.209,5.221 11.171,5.221 1.872,0 3.954,-0.158 6.541,-0.495 1.959,-0.258 3.932,-0.573 5.932,-0.889 3.66,-0.584 7.443,-1.189 11.291,-1.44 0.94,-0.059 1.861,-0.093 2.756,-0.093 5.123,0 8.982,1.048 11.471,3.116 3.285,2.723 4.701,7.026 4.103,12.442 -0.615,5.564 -2.596,10.377 -4.453,14.353"
             id="path3116"
             style="fill:#ffffff;fill-opacity:1;fill-rule:nonzero;stroke:none" />
        </g>
        <g
           transform="translate(497.0387,517.5042)"
           id="g3118">
          <path
             d="m 0,0 c 3.453,0 6.334,1.682 6.334,6.821 l 0,9.448 -3.732,0 0,-9.724 C 2.602,4.793 2.025,3.342 0,3.342 c -2.027,0 -2.676,1.451 -2.676,3.203 l 0,9.724 -3.732,0 -0.024,-9.448 C -6.455,1.682 -3.482,0 0,0"
             id="path3120"
             style="fill:#ffffff;fill-opacity:1;fill-rule:nonzero;stroke:none" />
        </g>
        <g
           transform="translate(504.3492,530.8235)"
           id="g3122">
          <path
             d="m 0,0 5.281,0 0,-13.181 3.733,0 0,13.181 5.078,0 0,2.949 L 0,2.949 0,0 z"
             id="path3124"
             style="fill:#ffffff;fill-opacity:1;fill-rule:nonzero;stroke:none" />
        </g>
        <g
           transform="translate(531.8708,520.593)"
           id="g3126">
          <path
             d="M 0,0 -7.766,0 0,10.23 l 0,2.95 -12.443,0 0,-2.95 7.904,0 -7.904,-10.23 0,-2.95 L 0,-2.95 0,0 z"
             id="path3128"
             style="fill:#ffffff;fill-opacity:1;fill-rule:nonzero;stroke:none" />
        </g>
        <g
           transform="translate(494.8434,508.0305)"
           id="g3130">
          <path
             d="m 0,0 c -1.316,0 -2.58,0.86 -2.58,3.173 0,2.277 1.025,3.224 2.328,3.224 1.859,0 1.936,-1.858 1.936,-1.858 l 1.361,0.215 c 0,0.379 -0.264,2.948 -3.322,2.948 -2.289,0 -3.832,-1.494 -3.832,-4.529 0,-3.046 1.693,-4.478 4.033,-4.478 2.187,0 3.137,1.61 3.137,1.61 L 2.213,1.2 C 2.213,1.2 1.393,0 0,0"
             id="path3132"
             style="fill:#ffffff;fill-opacity:1;fill-rule:nonzero;stroke:none" />
        </g>
        <g
           transform="translate(501.4078,511.9124)"
           id="g3134">
          <path
             d="m 0,0 c 0.846,0 1.188,-0.584 1.188,-1.393 l -2.528,0 C -1.215,-0.419 -0.695,0 0,0 m 0.291,-4.06 c -0.68,0 -1.566,0.393 -1.656,1.758 l 3.857,0 0,0.569 c 0,1.62 -0.658,2.795 -2.416,2.795 -1.847,0 -2.82,-1.125 -2.82,-3.123 0,-2.137 1.291,-3.126 2.846,-3.126 1.808,0 2.453,1.216 2.453,1.216 L 1.846,-3.25 c 0,0 -0.506,-0.81 -1.555,-0.81"
             id="path3136"
             style="fill:#ffffff;fill-opacity:1;fill-rule:nonzero;stroke:none" />
        </g>
        <g
           transform="translate(506.6813,511.7854)"
           id="g3138">
          <path
             d="m 0,0 0,0.265 c -0.127,0.609 -0.533,0.898 -1.115,0.898 -0.389,0 -0.582,-0.076 -0.582,-0.076 l 0,-0.985 c 0.406,0 0.519,-0.19 0.519,-0.508 l 0,-4.577 1.367,0 0,3.479 c 0.01,0.619 0.377,1.454 1.276,1.454 0.494,0 0.734,-0.179 0.734,-0.179 l 0.557,1.203 c 0,0 -0.305,0.214 -0.899,0.214 C 0.705,1.188 0.174,0.594 0,0"
             id="path3140"
             style="fill:#ffffff;fill-opacity:1;fill-rule:nonzero;stroke:none" />
        </g>
        <g
           transform="translate(513.4839,507.9543)"
           id="g3142">
          <path
             d="m 0,0 c -0.748,0 -1.078,0.443 -1.078,1.327 l 0,2.529 2.213,0 0,1.087 -2.213,0 0,1.911 -1.363,0 0,-1.911 -0.938,0 0,-1.087 0.938,0 0,-2.58 c 0,-1.618 0.644,-2.505 2.3,-2.505 0.989,0 1.594,0.647 1.594,0.647 l -0.418,1 C 1.035,0.418 0.645,0 0,0"
             id="path3144"
             style="fill:#ffffff;fill-opacity:1;fill-rule:nonzero;stroke:none" />
        </g>
        <g
           transform="translate(517.5328,508.3352)"
           id="g3146">
          <path
             d="m 0,0 0,4.563 -1.367,0 0,-4.741 c 0,-0.974 0.471,-1.403 1.281,-1.403 0.391,0 0.606,0.073 0.606,0.073 l 0,0.988 C 0.127,-0.52 0,-0.343 0,0"
             id="path3148"
             style="fill:#ffffff;fill-opacity:1;fill-rule:nonzero;stroke:none" />
        </g>
        <g
           transform="translate(516.8512,514.1116)"
           id="g3150">
          <path
             d="M 0,0 C 0.494,0 0.885,0.355 0.885,0.846 0.885,1.33 0.494,1.682 0,1.682 -0.494,1.682 -0.873,1.33 -0.873,0.846 -0.873,0.355 -0.494,0 0,0"
             id="path3152"
             style="fill:#ffffff;fill-opacity:1;fill-rule:nonzero;stroke:none" />
        </g>
        <g
           transform="translate(522.3824,514.8088)"
           id="g3154">
          <path
             d="m 0,0 c 0.67,0 0.959,-0.381 0.959,-0.381 l 0.432,1.014 c 0,0 -0.483,0.592 -1.53,0.592 -1.543,0 -2.236,-0.975 -2.236,-2.388 l 0,-0.748 -0.887,0 0,-1.087 0.887,0 0,-5.009 1.365,0 0,5.009 2.045,0 0,1.087 -2.045,0 0,0.697 C -1.01,-0.457 -0.645,0 0,0"
             id="path3156"
             style="fill:#ffffff;fill-opacity:1;fill-rule:nonzero;stroke:none" />
        </g>
        <g
           transform="translate(525.441,514.1116)"
           id="g3158">
          <path
             d="M 0,0 C 0.494,0 0.885,0.355 0.885,0.846 0.885,1.33 0.494,1.682 0,1.682 -0.492,1.682 -0.871,1.33 -0.871,0.846 -0.871,0.355 -0.492,0 0,0"
             id="path3160"
             style="fill:#ffffff;fill-opacity:1;fill-rule:nonzero;stroke:none" />
        </g>
        <g
           transform="translate(526.1247,508.3352)"
           id="g3162">
          <path
             d="m 0,0 0,4.563 -1.367,0 0,-4.741 c 0,-0.974 0.471,-1.403 1.279,-1.403 0.391,0 0.606,0.073 0.606,0.073 l 0,0.988 C 0.127,-0.52 0,-0.343 0,0"
             id="path3164"
             style="fill:#ffffff;fill-opacity:1;fill-rule:nonzero;stroke:none" />
        </g>
        <g
           transform="translate(530.4489,511.9124)"
           id="g3166">
          <path
             d="m 0,0 c 0.848,0 1.191,-0.584 1.191,-1.393 l -2.531,0 C -1.213,-0.419 -0.695,0 0,0 m 0.291,-4.06 c -0.684,0 -1.568,0.393 -1.656,1.758 l 3.857,0 0,0.569 c 0,1.62 -0.658,2.795 -2.416,2.795 -1.846,0 -2.82,-1.125 -2.82,-3.123 0,-2.137 1.291,-3.126 2.846,-3.126 1.808,0 2.453,1.216 2.453,1.216 L 1.846,-3.25 c 0,0 -0.502,-0.81 -1.555,-0.81"
             id="path3168"
             style="fill:#ffffff;fill-opacity:1;fill-rule:nonzero;stroke:none" />
        </g>
        <g
           transform="translate(538.2692,509.1428)"
           id="g3170">
          <path
             d="m 0,0 c 0,-0.051 -0.229,-1.188 -1.379,-1.188 -0.746,0 -1.465,0.57 -1.465,1.884 0,1.29 0.643,1.909 1.453,1.909 1.036,0 1.375,-0.873 1.391,-1.088 L 0,0 z m 1.377,-0.808 0,7.648 L 0,6.84 0,3.11 c 0,0 -0.355,0.721 -1.594,0.721 -1.34,0 -2.605,-0.884 -2.605,-3.147 0,-2.163 1.254,-3.101 2.453,-3.101 1.353,0 1.783,0.861 1.91,1.09 l 0,-0.152 c 0.113,-0.646 0.508,-0.91 1.111,-0.91 0.393,0 0.608,0.074 0.608,0.074 l 0,0.988 c -0.391,0 -0.506,0.177 -0.506,0.519"
             id="path3172"
             style="fill:#ffffff;fill-opacity:1;fill-rule:nonzero;stroke:none" />
        </g>
      </g>
    </g>
  </g>
</svg>
